<svg xmlns="http://www.w3.org/2000/svg" xmlns:xlink="http://www.w3.org/1999/xlink" width="500" zoomAndPan="magnify" viewBox="0 0 375 374.999991" height="500" preserveAspectRatio="xMidYMid meet" version="1.0"><defs><clipPath id="77e38f8a09"><path d="M 112.5 139.628906 L 262.5 139.628906 L 262.5 235.628906 L 112.5 235.628906 Z M 112.5 139.628906 " clip-rule="nonzero"/></clipPath></defs><rect x="-37.5" width="450" fill="#ffffff" y="-37.499999" height="449.999989" fill-opacity="1"/><rect x="-37.5" width="450" fill="#ffffff" y="-37.499999" height="449.999989" fill-opacity="1"/><g clip-path="url(#77e38f8a09)"><path fill="#ffcb01" d="M 112.5 139.644531 L 262.5 139.644531 L 262.5 235.609375 L 112.5 235.609375 Z M 112.5 139.644531 " fill-opacity="1" fill-rule="nonzero"/></g><path fill="#d80613" d="M 140.375 176.179688 L 135.726562 182.507812 L 161.042969 182.507812 C 162.324219 182.507812 162.308594 182.992188 161.683594 183.84375 C 161.046875 184.710938 159.984375 186.203125 159.335938 187.085938 C 159.007812 187.53125 158.414062 188.339844 160.378906 188.339844 L 170.734375 188.339844 L 173.800781 184.160156 C 175.703125 181.570312 173.96875 176.183594 167.164062 176.183594 Z M 140.375 176.179688 " fill-opacity="1" fill-rule="nonzero"/><path fill="#d80613" d="M 133.847656 196.796875 L 143.179688 184.082031 L 154.757812 184.082031 C 156.039062 184.082031 156.023438 184.570312 155.398438 185.421875 L 153.035156 188.648438 C 152.707031 189.09375 152.113281 189.902344 154.078125 189.902344 L 169.585938 189.902344 C 168.300781 191.675781 164.113281 196.796875 156.605469 196.796875 Z M 187.28125 189.898438 L 182.222656 196.796875 L 168.875 196.796875 L 173.933594 189.898438 Z M 207.726562 188.335938 L 175.085938 188.335938 L 184.011719 176.179688 L 197.351562 176.179688 L 192.238281 183.152344 L 198.191406 183.152344 L 203.3125 176.179688 L 216.652344 176.179688 Z M 206.582031 189.898438 L 201.519531 196.796875 L 188.179688 196.796875 L 193.238281 189.898438 Z M 114.804688 192.621094 L 134.464844 192.621094 L 133.390625 194.082031 L 114.804688 194.082031 Z M 114.804688 189.898438 L 136.460938 189.898438 L 135.386719 191.363281 L 114.804688 191.363281 Z M 114.804688 195.339844 L 132.46875 195.339844 L 131.398438 196.796875 L 114.804688 196.796875 Z M 260.199219 194.082031 L 240.609375 194.082031 L 241.683594 192.621094 L 260.199219 192.621094 Z M 260.199219 196.796875 L 238.621094 196.796875 L 239.6875 195.339844 L 260.199219 195.339844 Z M 243.679688 189.898438 L 260.199219 189.898438 L 260.199219 191.363281 L 242.609375 191.363281 Z M 235.132812 176.179688 L 226.207031 188.335938 L 212.066406 188.335938 L 221 176.179688 Z M 210.921875 189.898438 C 210.921875 189.898438 209.949219 191.238281 209.472656 191.878906 C 207.800781 194.148438 209.277344 196.792969 214.746094 196.792969 L 236.175781 196.792969 L 241.234375 189.898438 Z M 210.921875 189.898438 " fill-opacity="1" fill-rule="nonzero"/></svg>