<svg xmlns="http://www.w3.org/2000/svg" xmlns:xlink="http://www.w3.org/1999/xlink" width="500" zoomAndPan="magnify" viewBox="0 0 375 374.999991" height="500" preserveAspectRatio="xMidYMid meet" version="1.0"><defs><g/><clipPath id="aa8f2e2c7c"><path d="M 150.050781 132.558594 L 200.8125 132.558594 L 200.8125 191.523438 L 150.050781 191.523438 Z M 150.050781 132.558594 " clip-rule="nonzero"/></clipPath><clipPath id="3fbd7ed5d1"><path d="M 179.484375 191.535156 L 195.515625 191.535156 C 211.800781 191.535156 225 178.332031 225 162.050781 C 225 145.765625 211.800781 132.566406 195.515625 132.566406 L 179.484375 132.566406 C 163.199219 132.566406 150 145.765625 150 162.050781 C 150 178.332031 163.199219 191.535156 179.484375 191.535156 Z M 179.484375 191.535156 " clip-rule="nonzero"/></clipPath><clipPath id="4206a21913"><path d="M 174 132.285156 L 225 132.285156 L 225 191.535156 L 174 191.535156 Z M 174 132.285156 " clip-rule="nonzero"/></clipPath><clipPath id="978a00df7f"><path d="M 179.484375 191.535156 L 195.515625 191.535156 C 211.800781 191.535156 225 178.332031 225 162.050781 C 225 145.765625 211.800781 132.566406 195.515625 132.566406 L 179.484375 132.566406 C 163.199219 132.566406 150 145.765625 150 162.050781 C 150 178.332031 163.199219 191.535156 179.484375 191.535156 Z M 179.484375 191.535156 " clip-rule="nonzero"/></clipPath></defs><g clip-path="url(#aa8f2e2c7c)"><g clip-path="url(#3fbd7ed5d1)"><path fill="#a6a6a6" d="M 150.050781 191.429688 L 165.558594 175.824219 L 165.558594 154.691406 C 165.558594 147.425781 171.386719 141.417969 178.652344 141.375 C 185.953125 141.335938 191.902344 147.257812 191.902344 154.546875 L 191.902344 169.589844 C 191.902344 172.027344 193.875 174 196.308594 174 C 198.746094 174 200.71875 172.027344 200.71875 169.589844 L 200.71875 154.738281 C 200.71875 142.648438 190.828125 132.566406 178.742188 132.558594 C 166.613281 132.554688 156.742188 142.417969 156.742188 154.546875 L 156.742188 172.171875 L 150.050781 191.429688 " fill-opacity="1" fill-rule="nonzero"/></g></g><g clip-path="url(#4206a21913)"><g clip-path="url(#978a00df7f)"><path fill="#ff5757" d="M 174.28125 154.492188 L 174.28125 169.34375 C 174.28125 181.433594 184.167969 191.515625 196.257812 191.523438 C 208.386719 191.527344 218.253906 181.664062 218.253906 169.535156 L 218.253906 151.910156 L 224.945312 132.84375 L 209.4375 148.257812 L 209.4375 169.390625 C 209.4375 176.660156 203.613281 182.664062 196.34375 182.707031 C 189.046875 182.75 183.097656 176.824219 183.097656 169.535156 L 183.097656 154.492188 C 183.097656 152.058594 181.121094 150.082031 178.6875 150.082031 C 176.253906 150.082031 174.28125 152.058594 174.28125 154.492188 " fill-opacity="1" fill-rule="nonzero"/></g></g><g fill="#737373" fill-opacity="1"><g transform="translate(147.867205, 240.548113)"><g><path d="M 2.34375 0 L 1.03125 0 L 1.03125 -7.78125 L 2.34375 -7.78125 Z M 2.34375 0 "/></g></g></g><g fill="#737373" fill-opacity="1"><g transform="translate(153.4633, 240.548113)"><g><path d="M 7.78125 0 L 6.484375 0 L 2.34375 -5.578125 L 2.34375 0 L 1.03125 0 L 1.03125 -7.78125 L 2.3125 -7.78125 L 6.484375 -2.1875 L 6.484375 -7.78125 L 7.78125 -7.78125 Z M 7.78125 0 "/></g></g></g><g fill="#737373" fill-opacity="1"><g transform="translate(164.508763, 240.548113)"><g><path d="M 1.03125 -7.78125 L 4.21875 -7.78125 C 5.382812 -7.78125 6.347656 -7.410156 7.109375 -6.671875 C 7.867188 -5.941406 8.25 -5.015625 8.25 -3.890625 C 8.25 -2.765625 7.863281 -1.832031 7.09375 -1.09375 C 6.332031 -0.363281 5.363281 0 4.1875 0 L 1.03125 0 Z M 2.34375 -6.609375 L 2.34375 -1.171875 L 4.25 -1.171875 C 5.007812 -1.171875 5.644531 -1.425781 6.15625 -1.9375 C 6.664062 -2.445312 6.921875 -3.09375 6.921875 -3.875 C 6.921875 -4.664062 6.65625 -5.316406 6.125 -5.828125 C 5.601562 -6.347656 4.957031 -6.609375 4.1875 -6.609375 Z M 2.34375 -6.609375 "/></g></g></g><g fill="#737373" fill-opacity="1"><g transform="translate(175.365158, 240.548113)"><g><path d="M 7.640625 -7.78125 L 7.640625 -3.21875 C 7.640625 -2.207031 7.335938 -1.40625 6.734375 -0.8125 C 6.140625 -0.226562 5.316406 0.0625 4.265625 0.0625 C 3.210938 0.0625 2.382812 -0.226562 1.78125 -0.8125 C 1.175781 -1.40625 0.875 -2.207031 0.875 -3.21875 L 0.875 -7.78125 L 2.1875 -7.78125 L 2.1875 -3.21875 C 2.1875 -2.570312 2.367188 -2.0625 2.734375 -1.6875 C 3.109375 -1.3125 3.617188 -1.125 4.265625 -1.125 C 4.910156 -1.125 5.414062 -1.304688 5.78125 -1.671875 C 6.144531 -2.046875 6.328125 -2.5625 6.328125 -3.21875 L 6.328125 -7.78125 Z M 7.640625 -7.78125 "/></g></g></g><g fill="#737373" fill-opacity="1"><g transform="translate(186.099226, 240.548113)"><g><path d="M 3.578125 -7.84375 C 4.585938 -7.84375 5.5 -7.578125 6.3125 -7.046875 L 5.765625 -5.890625 C 4.972656 -6.367188 4.210938 -6.609375 3.484375 -6.609375 C 3.085938 -6.609375 2.773438 -6.535156 2.546875 -6.390625 C 2.328125 -6.253906 2.21875 -6.054688 2.21875 -5.796875 C 2.21875 -5.535156 2.320312 -5.3125 2.53125 -5.125 C 2.738281 -4.945312 2.992188 -4.816406 3.296875 -4.734375 C 3.609375 -4.648438 3.945312 -4.539062 4.3125 -4.40625 C 4.675781 -4.28125 5.015625 -4.144531 5.328125 -4 C 5.640625 -3.851562 5.894531 -3.625 6.09375 -3.3125 C 6.300781 -3.007812 6.40625 -2.640625 6.40625 -2.203125 C 6.40625 -1.515625 6.128906 -0.96875 5.578125 -0.5625 C 5.035156 -0.15625 4.332031 0.046875 3.46875 0.046875 C 2.875 0.046875 2.296875 -0.0625 1.734375 -0.28125 C 1.179688 -0.507812 0.703125 -0.8125 0.296875 -1.1875 L 0.859375 -2.328125 C 1.253906 -1.960938 1.6875 -1.679688 2.15625 -1.484375 C 2.625 -1.285156 3.070312 -1.1875 3.5 -1.1875 C 3.957031 -1.1875 4.3125 -1.269531 4.5625 -1.4375 C 4.820312 -1.601562 4.953125 -1.835938 4.953125 -2.140625 C 4.953125 -2.398438 4.847656 -2.617188 4.640625 -2.796875 C 4.429688 -2.984375 4.171875 -3.117188 3.859375 -3.203125 C 3.546875 -3.296875 3.207031 -3.398438 2.84375 -3.515625 C 2.476562 -3.640625 2.140625 -3.769531 1.828125 -3.90625 C 1.523438 -4.039062 1.269531 -4.257812 1.0625 -4.5625 C 0.851562 -4.875 0.75 -5.242188 0.75 -5.671875 C 0.75 -6.328125 1.003906 -6.851562 1.515625 -7.25 C 2.035156 -7.644531 2.722656 -7.84375 3.578125 -7.84375 Z M 3.578125 -7.84375 "/></g></g></g><g fill="#737373" fill-opacity="1"><g transform="translate(195.25409, 240.548113)"><g><path d="M 6.34375 -6.609375 L 3.875 -6.609375 L 3.875 0 L 2.5625 0 L 2.5625 -6.609375 L 0.09375 -6.609375 L 0.09375 -7.78125 L 6.34375 -7.78125 Z M 6.34375 -6.609375 "/></g></g></g><g fill="#737373" fill-opacity="1"><g transform="translate(203.930742, 240.548113)"><g><path d="M 5.96875 0 L 4.53125 -2.359375 C 4.457031 -2.347656 4.34375 -2.34375 4.1875 -2.34375 L 2.34375 -2.34375 L 2.34375 0 L 1.03125 0 L 1.03125 -7.78125 L 4.1875 -7.78125 C 5.175781 -7.78125 5.941406 -7.546875 6.484375 -7.078125 C 7.035156 -6.617188 7.3125 -5.96875 7.3125 -5.125 C 7.3125 -4.5 7.171875 -3.972656 6.890625 -3.546875 C 6.617188 -3.117188 6.222656 -2.804688 5.703125 -2.609375 L 7.453125 0 Z M 2.34375 -3.53125 L 4.1875 -3.53125 C 5.445312 -3.53125 6.078125 -4.050781 6.078125 -5.09375 C 6.078125 -6.101562 5.445312 -6.609375 4.1875 -6.609375 L 2.34375 -6.609375 Z M 2.34375 -3.53125 "/></g></g></g><g fill="#737373" fill-opacity="1"><g transform="translate(214.208847, 240.548113)"><g><path d="M 2.34375 0 L 1.03125 0 L 1.03125 -7.78125 L 2.34375 -7.78125 Z M 2.34375 0 "/></g></g></g><g fill="#737373" fill-opacity="1"><g transform="translate(219.804944, 240.548113)"><g><path d="M 6.59375 -6.609375 L 2.34375 -6.609375 L 2.34375 -4.5 L 6.140625 -4.5 L 6.140625 -3.328125 L 2.34375 -3.328125 L 2.34375 -1.171875 L 6.71875 -1.171875 L 6.71875 0 L 1.03125 0 L 1.03125 -7.78125 L 6.59375 -7.78125 Z M 6.59375 -6.609375 "/></g></g></g><g fill="#ff5757" fill-opacity="1"><g transform="translate(116.233009, 223.404727)"><g><path d="M 9.296875 -19.421875 C 12.160156 -19.421875 14.679688 -18.707031 16.859375 -17.28125 L 15.03125 -13.46875 C 14.019531 -14.050781 12.9375 -14.53125 11.78125 -14.90625 C 10.632812 -15.28125 9.671875 -15.46875 8.890625 -15.46875 C 7.472656 -15.46875 6.765625 -15 6.765625 -14.0625 C 6.765625 -13.457031 7.113281 -12.972656 7.8125 -12.609375 C 8.507812 -12.242188 9.351562 -11.925781 10.34375 -11.65625 C 11.34375 -11.394531 12.335938 -11.078125 13.328125 -10.703125 C 14.328125 -10.328125 15.175781 -9.71875 15.875 -8.875 C 16.570312 -8.039062 16.921875 -6.984375 16.921875 -5.703125 C 16.921875 -3.859375 16.195312 -2.414062 14.75 -1.375 C 13.3125 -0.34375 11.472656 0.171875 9.234375 0.171875 C 7.648438 0.171875 6.078125 -0.101562 4.515625 -0.65625 C 2.960938 -1.207031 1.613281 -1.957031 0.46875 -2.90625 L 2.359375 -6.65625 C 3.328125 -5.820312 4.46875 -5.132812 5.78125 -4.59375 C 7.101562 -4.050781 8.273438 -3.78125 9.296875 -3.78125 C 10.078125 -3.78125 10.6875 -3.921875 11.125 -4.203125 C 11.570312 -4.492188 11.796875 -4.910156 11.796875 -5.453125 C 11.796875 -5.984375 11.539062 -6.425781 11.03125 -6.78125 C 10.53125 -7.144531 9.90625 -7.410156 9.15625 -7.578125 C 8.40625 -7.753906 7.59375 -7.988281 6.71875 -8.28125 C 5.84375 -8.570312 5.03125 -8.890625 4.28125 -9.234375 C 3.53125 -9.585938 2.898438 -10.140625 2.390625 -10.890625 C 1.890625 -11.648438 1.640625 -12.5625 1.640625 -13.625 C 1.640625 -15.382812 2.335938 -16.789062 3.734375 -17.84375 C 5.140625 -18.894531 6.992188 -19.421875 9.296875 -19.421875 Z M 9.296875 -19.421875 "/></g></g></g><g fill="#ff5757" fill-opacity="1"><g transform="translate(134.825434, 223.404727)"><g><path d="M 16.59375 -15.28125 L 10.796875 -15.28125 L 10.796875 0 L 5.921875 0 L 5.921875 -15.28125 L 0.1875 -15.28125 L 0.1875 -19.21875 L 16.59375 -19.21875 Z M 16.59375 -15.28125 "/></g></g></g><g fill="#ff5757" fill-opacity="1"><g transform="translate(152.512929, 223.404727)"><g><path d="M 11.03125 -19.359375 C 14.007812 -19.359375 16.484375 -18.429688 18.453125 -16.578125 C 20.429688 -14.722656 21.421875 -12.40625 21.421875 -9.625 C 21.421875 -6.820312 20.425781 -4.476562 18.4375 -2.59375 C 16.457031 -0.71875 13.984375 0.21875 11.015625 0.21875 C 8.054688 0.21875 5.585938 -0.71875 3.609375 -2.59375 C 1.640625 -4.46875 0.65625 -6.8125 0.65625 -9.625 C 0.65625 -12.425781 1.640625 -14.75 3.609375 -16.59375 C 5.585938 -18.4375 8.0625 -19.359375 11.03125 -19.359375 Z M 11.078125 -15.28125 C 9.578125 -15.28125 8.296875 -14.734375 7.234375 -13.640625 C 6.179688 -12.554688 5.65625 -11.207031 5.65625 -9.59375 C 5.65625 -7.988281 6.1875 -6.628906 7.25 -5.515625 C 8.320312 -4.410156 9.597656 -3.859375 11.078125 -3.859375 C 12.554688 -3.859375 13.8125 -4.410156 14.84375 -5.515625 C 15.875 -6.628906 16.390625 -7.988281 16.390625 -9.59375 C 16.390625 -11.207031 15.875 -12.554688 14.84375 -13.640625 C 13.8125 -14.734375 12.554688 -15.28125 11.078125 -15.28125 Z M 11.078125 -15.28125 "/></g></g></g><g fill="#ff5757" fill-opacity="1"><g transform="translate(175.520267, 223.404727)"><g><path d="M 13.484375 0 L 10.640625 -5.40625 L 6.796875 -5.40625 L 6.796875 0 L 1.921875 0 L 1.921875 -19.203125 L 10.5 -19.203125 C 13.039062 -19.203125 15.003906 -18.617188 16.390625 -17.453125 C 17.785156 -16.296875 18.484375 -14.644531 18.484375 -12.5 C 18.484375 -9.539062 17.320312 -7.484375 15 -6.328125 L 19.03125 0 Z M 6.796875 -9.234375 L 10.5 -9.234375 C 11.5625 -9.234375 12.382812 -9.5 12.96875 -10.03125 C 13.550781 -10.5625 13.84375 -11.332031 13.84375 -12.34375 C 13.84375 -13.332031 13.550781 -14.082031 12.96875 -14.59375 C 12.382812 -15.101562 11.5625 -15.359375 10.5 -15.359375 L 6.796875 -15.359375 Z M 6.796875 -9.234375 "/></g></g></g><g fill="#ff5757" fill-opacity="1"><g transform="translate(196.306433, 223.404727)"><g><path d="M 14.671875 -3.53125 L 6.28125 -3.53125 L 4.875 0 L -0.140625 0 L 8.140625 -19.203125 L 13.15625 -19.203125 L 21.25 0 L 16.046875 0 Z M 13.25 -7.234375 L 10.5 -14.34375 L 7.703125 -7.234375 Z M 13.25 -7.234375 "/></g></g></g><g fill="#ff5757" fill-opacity="1"><g transform="translate(218.354001, 223.404727)"><g><path d="M 10.90625 -19.359375 C 12.332031 -19.359375 13.734375 -19.066406 15.109375 -18.484375 C 16.492188 -17.898438 17.671875 -17.113281 18.640625 -16.125 L 15.828125 -12.78125 C 15.203125 -13.550781 14.453125 -14.160156 13.578125 -14.609375 C 12.710938 -15.054688 11.851562 -15.28125 11 -15.28125 C 9.476562 -15.28125 8.207031 -14.742188 7.1875 -13.671875 C 6.164062 -12.597656 5.65625 -11.273438 5.65625 -9.703125 C 5.65625 -8.097656 6.164062 -6.753906 7.1875 -5.671875 C 8.207031 -4.597656 9.476562 -4.0625 11 -4.0625 C 11.800781 -4.0625 12.632812 -4.257812 13.5 -4.65625 C 14.375 -5.0625 15.148438 -5.613281 15.828125 -6.3125 L 18.671875 -3.296875 C 17.628906 -2.234375 16.398438 -1.378906 14.984375 -0.734375 C 13.566406 -0.0976562 12.15625 0.21875 10.75 0.21875 C 7.863281 0.21875 5.457031 -0.71875 3.53125 -2.59375 C 1.613281 -4.476562 0.65625 -6.832031 0.65625 -9.65625 C 0.65625 -12.414062 1.632812 -14.722656 3.59375 -16.578125 C 5.550781 -18.429688 7.988281 -19.359375 10.90625 -19.359375 Z M 10.90625 -19.359375 "/></g></g></g><g fill="#ff5757" fill-opacity="1"><g transform="translate(238.262668, 223.404727)"><g><path d="M 14.421875 0 L 9.34375 -7.546875 L 6.796875 -4.71875 L 6.796875 0 L 1.921875 0 L 1.921875 -19.203125 L 6.796875 -19.203125 L 6.796875 -10.890625 L 14.15625 -19.203125 L 19.796875 -19.203125 L 12.671875 -11.25 L 20.265625 0 Z M 14.421875 0 "/></g></g></g><g fill="#000000" fill-opacity="1"><g transform="translate(79.903761, 254.103683)"><g><path d="M 4 -4.234375 L 1.5 -4.234375 L 1.5 -2.796875 L 3.765625 -2.796875 L 3.765625 -2.046875 L 1.5 -2.046875 L 1.5 0 L 0.65625 0 L 0.65625 -4.984375 L 4 -4.984375 Z M 4 -4.234375 "/></g></g></g><g fill="#000000" fill-opacity="1"><g transform="translate(85.438165, 254.103683)"><g><path d="M 1.5 0 L 0.65625 0 L 0.65625 -4.984375 L 1.5 -4.984375 Z M 1.5 0 "/></g></g></g><g fill="#000000" fill-opacity="1"><g transform="translate(89.025536, 254.103683)"><g><path d="M 4.984375 0 L 4.15625 0 L 1.5 -3.578125 L 1.5 0 L 0.65625 0 L 0.65625 -4.984375 L 1.484375 -4.984375 L 4.15625 -1.40625 L 4.15625 -4.984375 L 4.984375 -4.984375 Z M 4.984375 0 "/></g></g></g><g fill="#000000" fill-opacity="1"><g transform="translate(96.10758, 254.103683)"><g><path d="M 0.65625 -4.984375 L 2.703125 -4.984375 C 3.441406 -4.984375 4.054688 -4.75 4.546875 -4.28125 C 5.035156 -3.8125 5.28125 -3.210938 5.28125 -2.484375 C 5.28125 -1.765625 5.035156 -1.171875 4.546875 -0.703125 C 4.054688 -0.234375 3.429688 0 2.671875 0 L 0.65625 0 Z M 1.5 -4.234375 L 1.5 -0.75 L 2.71875 -0.75 C 3.207031 -0.75 3.613281 -0.910156 3.9375 -1.234375 C 4.269531 -1.566406 4.4375 -1.984375 4.4375 -2.484375 C 4.4375 -2.984375 4.265625 -3.398438 3.921875 -3.734375 C 3.585938 -4.066406 3.175781 -4.234375 2.6875 -4.234375 Z M 1.5 -4.234375 "/></g></g></g><g fill="#000000" fill-opacity="1"><g transform="translate(103.068374, 254.103683)"><g/></g></g><g fill="#000000" fill-opacity="1"><g transform="translate(106.341939, 254.103683)"><g><path d="M 2.703125 -1.65625 L 2.703125 0 L 1.859375 0 L 1.859375 -1.625 L 0 -4.984375 L 0.859375 -4.984375 L 2.28125 -2.5625 L 3.671875 -4.984375 L 4.53125 -4.984375 Z M 2.703125 -1.65625 "/></g></g></g><g fill="#000000" fill-opacity="1"><g transform="translate(112.318524, 254.103683)"><g><path d="M 1 -4.28125 C 1.507812 -4.769531 2.132812 -5.015625 2.875 -5.015625 C 3.625 -5.015625 4.253906 -4.769531 4.765625 -4.28125 C 5.273438 -3.800781 5.53125 -3.203125 5.53125 -2.484375 C 5.53125 -1.773438 5.273438 -1.175781 4.765625 -0.6875 C 4.253906 -0.207031 3.625 0.03125 2.875 0.03125 C 2.132812 0.03125 1.507812 -0.207031 1 -0.6875 C 0.5 -1.175781 0.25 -1.773438 0.25 -2.484375 C 0.25 -3.203125 0.5 -3.800781 1 -4.28125 Z M 2.890625 -4.25 C 2.398438 -4.25 1.976562 -4.078125 1.625 -3.734375 C 1.269531 -3.398438 1.09375 -2.984375 1.09375 -2.484375 C 1.09375 -1.992188 1.269531 -1.578125 1.625 -1.234375 C 1.976562 -0.890625 2.398438 -0.71875 2.890625 -0.71875 C 3.378906 -0.71875 3.796875 -0.890625 4.140625 -1.234375 C 4.492188 -1.578125 4.671875 -1.992188 4.671875 -2.484375 C 4.671875 -2.984375 4.492188 -3.398438 4.140625 -3.734375 C 3.796875 -4.078125 3.378906 -4.25 2.890625 -4.25 Z M 2.890625 -4.25 "/></g></g></g><g fill="#000000" fill-opacity="1"><g transform="translate(119.528935, 254.103683)"><g><path d="M 4.890625 -4.984375 L 4.890625 -2.0625 C 4.890625 -1.414062 4.695312 -0.90625 4.3125 -0.53125 C 3.925781 -0.15625 3.394531 0.03125 2.71875 0.03125 C 2.050781 0.03125 1.523438 -0.15625 1.140625 -0.53125 C 0.753906 -0.90625 0.5625 -1.414062 0.5625 -2.0625 L 0.5625 -4.984375 L 1.390625 -4.984375 L 1.390625 -2.0625 C 1.390625 -1.644531 1.507812 -1.316406 1.75 -1.078125 C 1.988281 -0.835938 2.316406 -0.71875 2.734375 -0.71875 C 3.140625 -0.71875 3.457031 -0.835938 3.6875 -1.078125 C 3.925781 -1.316406 4.046875 -1.644531 4.046875 -2.0625 L 4.046875 -4.984375 Z M 4.890625 -4.984375 "/></g></g></g><g fill="#000000" fill-opacity="1"><g transform="translate(126.411277, 254.103683)"><g><path d="M 3.8125 0 L 2.90625 -1.515625 C 2.851562 -1.503906 2.773438 -1.5 2.671875 -1.5 L 1.5 -1.5 L 1.5 0 L 0.65625 0 L 0.65625 -4.984375 L 2.671875 -4.984375 C 3.316406 -4.984375 3.8125 -4.832031 4.15625 -4.53125 C 4.507812 -4.238281 4.6875 -3.820312 4.6875 -3.28125 C 4.6875 -2.882812 4.597656 -2.546875 4.421875 -2.265625 C 4.242188 -1.992188 3.988281 -1.796875 3.65625 -1.671875 L 4.78125 0 Z M 1.5 -2.265625 L 2.671875 -2.265625 C 3.484375 -2.265625 3.890625 -2.597656 3.890625 -3.265625 C 3.890625 -3.910156 3.484375 -4.234375 2.671875 -4.234375 L 1.5 -4.234375 Z M 1.5 -2.265625 "/></g></g></g><g fill="#000000" fill-opacity="1"><g transform="translate(136.274777, 254.103683)"><g><path d="M 5.78125 0 L 4.921875 0 L 3.734375 -3.890625 L 2.546875 0 L 1.671875 0 L 0.015625 -4.984375 L 0.921875 -4.984375 L 2.140625 -0.9375 L 3.34375 -4.984375 L 4.171875 -4.984375 L 5.375 -0.9375 L 6.578125 -4.984375 L 7.453125 -4.984375 Z M 5.78125 0 "/></g></g></g><g fill="#000000" fill-opacity="1"><g transform="translate(145.097016, 254.103683)"><g><path d="M 3.875 -1.125 L 1.359375 -1.125 L 0.890625 0 L 0 0 L 2.203125 -4.984375 L 3.078125 -4.984375 L 5.25 0 L 4.359375 0 Z M 3.5625 -1.875 L 2.609375 -4.09375 L 1.671875 -1.875 Z M 3.5625 -1.875 "/></g></g></g><g fill="#000000" fill-opacity="1"><g transform="translate(151.793931, 254.103683)"><g><path d="M 3.8125 0 L 2.90625 -1.515625 C 2.851562 -1.503906 2.773438 -1.5 2.671875 -1.5 L 1.5 -1.5 L 1.5 0 L 0.65625 0 L 0.65625 -4.984375 L 2.671875 -4.984375 C 3.316406 -4.984375 3.8125 -4.832031 4.15625 -4.53125 C 4.507812 -4.238281 4.6875 -3.820312 4.6875 -3.28125 C 4.6875 -2.882812 4.597656 -2.546875 4.421875 -2.265625 C 4.242188 -1.992188 3.988281 -1.796875 3.65625 -1.671875 L 4.78125 0 Z M 1.5 -2.265625 L 2.671875 -2.265625 C 3.484375 -2.265625 3.890625 -2.597656 3.890625 -3.265625 C 3.890625 -3.910156 3.484375 -4.234375 2.671875 -4.234375 L 1.5 -4.234375 Z M 1.5 -2.265625 "/></g></g></g><g fill="#000000" fill-opacity="1"><g transform="translate(158.383857, 254.103683)"><g><path d="M 4.21875 -4.234375 L 1.5 -4.234375 L 1.5 -2.890625 L 3.9375 -2.890625 L 3.9375 -2.125 L 1.5 -2.125 L 1.5 -0.75 L 4.296875 -0.75 L 4.296875 0 L 0.65625 0 L 0.65625 -4.984375 L 4.21875 -4.984375 Z M 4.21875 -4.234375 "/></g></g></g><g fill="#000000" fill-opacity="1"><g transform="translate(164.495949, 254.103683)"><g><path d="M 4.984375 0 L 4.140625 0 L 4.140625 -2.0625 L 1.5 -2.0625 L 1.5 0 L 0.65625 0 L 0.65625 -4.984375 L 1.5 -4.984375 L 1.5 -2.828125 L 4.140625 -2.828125 L 4.140625 -4.984375 L 4.984375 -4.984375 Z M 4.984375 0 "/></g></g></g><g fill="#000000" fill-opacity="1"><g transform="translate(171.570857, 254.103683)"><g><path d="M 1 -4.28125 C 1.507812 -4.769531 2.132812 -5.015625 2.875 -5.015625 C 3.625 -5.015625 4.253906 -4.769531 4.765625 -4.28125 C 5.273438 -3.800781 5.53125 -3.203125 5.53125 -2.484375 C 5.53125 -1.773438 5.273438 -1.175781 4.765625 -0.6875 C 4.253906 -0.207031 3.625 0.03125 2.875 0.03125 C 2.132812 0.03125 1.507812 -0.207031 1 -0.6875 C 0.5 -1.175781 0.25 -1.773438 0.25 -2.484375 C 0.25 -3.203125 0.5 -3.800781 1 -4.28125 Z M 2.890625 -4.25 C 2.398438 -4.25 1.976562 -4.078125 1.625 -3.734375 C 1.269531 -3.398438 1.09375 -2.984375 1.09375 -2.484375 C 1.09375 -1.992188 1.269531 -1.578125 1.625 -1.234375 C 1.976562 -0.890625 2.398438 -0.71875 2.890625 -0.71875 C 3.378906 -0.71875 3.796875 -0.890625 4.140625 -1.234375 C 4.492188 -1.578125 4.671875 -1.992188 4.671875 -2.484375 C 4.671875 -2.984375 4.492188 -3.398438 4.140625 -3.734375 C 3.796875 -4.078125 3.378906 -4.25 2.890625 -4.25 Z M 2.890625 -4.25 "/></g></g></g><g fill="#000000" fill-opacity="1"><g transform="translate(178.781269, 254.103683)"><g><path d="M 4.890625 -4.984375 L 4.890625 -2.0625 C 4.890625 -1.414062 4.695312 -0.90625 4.3125 -0.53125 C 3.925781 -0.15625 3.394531 0.03125 2.71875 0.03125 C 2.050781 0.03125 1.523438 -0.15625 1.140625 -0.53125 C 0.753906 -0.90625 0.5625 -1.414062 0.5625 -2.0625 L 0.5625 -4.984375 L 1.390625 -4.984375 L 1.390625 -2.0625 C 1.390625 -1.644531 1.507812 -1.316406 1.75 -1.078125 C 1.988281 -0.835938 2.316406 -0.71875 2.734375 -0.71875 C 3.140625 -0.71875 3.457031 -0.835938 3.6875 -1.078125 C 3.925781 -1.316406 4.046875 -1.644531 4.046875 -2.0625 L 4.046875 -4.984375 Z M 4.890625 -4.984375 "/></g></g></g><g fill="#000000" fill-opacity="1"><g transform="translate(185.663612, 254.103683)"><g><path d="M 2.296875 -5.015625 C 2.941406 -5.015625 3.523438 -4.847656 4.046875 -4.515625 L 3.6875 -3.765625 C 3.175781 -4.078125 2.691406 -4.234375 2.234375 -4.234375 C 1.984375 -4.234375 1.785156 -4.1875 1.640625 -4.09375 C 1.492188 -4.007812 1.421875 -3.882812 1.421875 -3.71875 C 1.421875 -3.550781 1.484375 -3.40625 1.609375 -3.28125 C 1.742188 -3.164062 1.910156 -3.082031 2.109375 -3.03125 C 2.316406 -2.976562 2.535156 -2.910156 2.765625 -2.828125 C 2.992188 -2.742188 3.207031 -2.65625 3.40625 -2.5625 C 3.613281 -2.46875 3.78125 -2.320312 3.90625 -2.125 C 4.039062 -1.925781 4.109375 -1.6875 4.109375 -1.40625 C 4.109375 -0.96875 3.929688 -0.617188 3.578125 -0.359375 C 3.234375 -0.0976562 2.78125 0.03125 2.21875 0.03125 C 1.84375 0.03125 1.472656 -0.0390625 1.109375 -0.1875 C 0.753906 -0.332031 0.445312 -0.523438 0.1875 -0.765625 L 0.546875 -1.484375 C 0.796875 -1.253906 1.070312 -1.078125 1.375 -0.953125 C 1.675781 -0.828125 1.960938 -0.765625 2.234375 -0.765625 C 2.523438 -0.765625 2.753906 -0.816406 2.921875 -0.921875 C 3.085938 -1.023438 3.171875 -1.175781 3.171875 -1.375 C 3.171875 -1.539062 3.101562 -1.679688 2.96875 -1.796875 C 2.832031 -1.910156 2.664062 -1.992188 2.46875 -2.046875 C 2.269531 -2.109375 2.050781 -2.175781 1.8125 -2.25 C 1.582031 -2.332031 1.367188 -2.414062 1.171875 -2.5 C 0.972656 -2.59375 0.804688 -2.734375 0.671875 -2.921875 C 0.546875 -3.117188 0.484375 -3.359375 0.484375 -3.640625 C 0.484375 -4.054688 0.644531 -4.390625 0.96875 -4.640625 C 1.300781 -4.890625 1.742188 -5.015625 2.296875 -5.015625 Z M 2.296875 -5.015625 "/></g></g></g><g fill="#000000" fill-opacity="1"><g transform="translate(191.533216, 254.103683)"><g><path d="M 4.21875 -4.234375 L 1.5 -4.234375 L 1.5 -2.890625 L 3.9375 -2.890625 L 3.9375 -2.125 L 1.5 -2.125 L 1.5 -0.75 L 4.296875 -0.75 L 4.296875 0 L 0.65625 0 L 0.65625 -4.984375 L 4.21875 -4.984375 Z M 4.21875 -4.234375 "/></g></g></g><g fill="#000000" fill-opacity="1"><g transform="translate(197.645308, 254.103683)"><g/></g></g><g fill="#000000" fill-opacity="1"><g transform="translate(200.918876, 254.103683)"><g><path d="M 3.8125 0 L 2.90625 -1.515625 C 2.851562 -1.503906 2.773438 -1.5 2.671875 -1.5 L 1.5 -1.5 L 1.5 0 L 0.65625 0 L 0.65625 -4.984375 L 2.671875 -4.984375 C 3.316406 -4.984375 3.8125 -4.832031 4.15625 -4.53125 C 4.507812 -4.238281 4.6875 -3.820312 4.6875 -3.28125 C 4.6875 -2.882812 4.597656 -2.546875 4.421875 -2.265625 C 4.242188 -1.992188 3.988281 -1.796875 3.65625 -1.671875 L 4.78125 0 Z M 1.5 -2.265625 L 2.671875 -2.265625 C 3.484375 -2.265625 3.890625 -2.597656 3.890625 -3.265625 C 3.890625 -3.910156 3.484375 -4.234375 2.671875 -4.234375 L 1.5 -4.234375 Z M 1.5 -2.265625 "/></g></g></g><g fill="#000000" fill-opacity="1"><g transform="translate(207.508807, 254.103683)"><g><path d="M 3.875 -1.125 L 1.359375 -1.125 L 0.890625 0 L 0 0 L 2.203125 -4.984375 L 3.078125 -4.984375 L 5.25 0 L 4.359375 0 Z M 3.5625 -1.875 L 2.609375 -4.09375 L 1.671875 -1.875 Z M 3.5625 -1.875 "/></g></g></g><g fill="#000000" fill-opacity="1"><g transform="translate(214.205722, 254.103683)"><g><path d="M 2.859375 -5.015625 C 3.210938 -5.015625 3.554688 -4.945312 3.890625 -4.8125 C 4.222656 -4.675781 4.515625 -4.484375 4.765625 -4.234375 L 4.265625 -3.625 C 4.085938 -3.820312 3.875 -3.976562 3.625 -4.09375 C 3.375 -4.207031 3.125 -4.265625 2.875 -4.265625 C 2.375 -4.265625 1.953125 -4.09375 1.609375 -3.75 C 1.265625 -3.40625 1.09375 -2.992188 1.09375 -2.515625 C 1.09375 -2.015625 1.265625 -1.59375 1.609375 -1.25 C 1.953125 -0.914062 2.375 -0.75 2.875 -0.75 C 3.394531 -0.75 3.859375 -0.945312 4.265625 -1.34375 L 4.765625 -0.78125 C 4.503906 -0.53125 4.203125 -0.332031 3.859375 -0.1875 C 3.523438 -0.0390625 3.179688 0.03125 2.828125 0.03125 C 2.097656 0.03125 1.484375 -0.207031 0.984375 -0.6875 C 0.492188 -1.175781 0.25 -1.78125 0.25 -2.5 C 0.25 -3.207031 0.5 -3.800781 1 -4.28125 C 1.507812 -4.769531 2.128906 -5.015625 2.859375 -5.015625 Z M 2.859375 -5.015625 "/></g></g></g><g fill="#000000" fill-opacity="1"><g transform="translate(220.610226, 254.103683)"><g><path d="M 3.984375 0 L 2.34375 -2.203125 L 1.5 -1.265625 L 1.5 0 L 0.65625 0 L 0.65625 -4.984375 L 1.5 -4.984375 L 1.5 -2.40625 L 3.875 -4.984375 L 4.859375 -4.984375 L 2.9375 -2.859375 L 5 0 Z M 3.984375 0 "/></g></g></g><g fill="#000000" fill-opacity="1"><g transform="translate(227.164499, 254.103683)"><g><path d="M 1.5 0 L 0.65625 0 L 0.65625 -4.984375 L 1.5 -4.984375 Z M 1.5 0 "/></g></g></g><g fill="#000000" fill-opacity="1"><g transform="translate(230.751871, 254.103683)"><g><path d="M 4.984375 0 L 4.15625 0 L 1.5 -3.578125 L 1.5 0 L 0.65625 0 L 0.65625 -4.984375 L 1.484375 -4.984375 L 4.15625 -1.40625 L 4.15625 -4.984375 L 4.984375 -4.984375 Z M 4.984375 0 "/></g></g></g><g fill="#000000" fill-opacity="1"><g transform="translate(237.833907, 254.103683)"><g><path d="M 4.0625 -2.453125 L 4.796875 -2.453125 L 4.796875 -0.609375 C 4.546875 -0.421875 4.242188 -0.265625 3.890625 -0.140625 C 3.546875 -0.0234375 3.203125 0.03125 2.859375 0.03125 C 2.128906 0.03125 1.507812 -0.207031 1 -0.6875 C 0.5 -1.175781 0.25 -1.773438 0.25 -2.484375 C 0.25 -3.203125 0.503906 -3.800781 1.015625 -4.28125 C 1.523438 -4.769531 2.160156 -5.015625 2.921875 -5.015625 C 3.265625 -5.015625 3.601562 -4.945312 3.9375 -4.8125 C 4.28125 -4.6875 4.578125 -4.519531 4.828125 -4.3125 L 4.359375 -3.6875 C 3.941406 -4.070312 3.460938 -4.265625 2.921875 -4.265625 C 2.410156 -4.265625 1.976562 -4.09375 1.625 -3.75 C 1.269531 -3.40625 1.09375 -2.988281 1.09375 -2.5 C 1.09375 -2 1.269531 -1.578125 1.625 -1.234375 C 1.976562 -0.890625 2.410156 -0.71875 2.921875 -0.71875 C 3.304688 -0.71875 3.6875 -0.832031 4.0625 -1.0625 Z M 4.0625 -2.453125 "/></g></g></g><g fill="#000000" fill-opacity="1"><g transform="translate(244.609266, 254.103683)"><g/></g></g><g fill="#000000" fill-opacity="1"><g transform="translate(247.882834, 254.103683)"><g><path d="M 2.296875 -5.015625 C 2.941406 -5.015625 3.523438 -4.847656 4.046875 -4.515625 L 3.6875 -3.765625 C 3.175781 -4.078125 2.691406 -4.234375 2.234375 -4.234375 C 1.984375 -4.234375 1.785156 -4.1875 1.640625 -4.09375 C 1.492188 -4.007812 1.421875 -3.882812 1.421875 -3.71875 C 1.421875 -3.550781 1.484375 -3.40625 1.609375 -3.28125 C 1.742188 -3.164062 1.910156 -3.082031 2.109375 -3.03125 C 2.316406 -2.976562 2.535156 -2.910156 2.765625 -2.828125 C 2.992188 -2.742188 3.207031 -2.65625 3.40625 -2.5625 C 3.613281 -2.46875 3.78125 -2.320312 3.90625 -2.125 C 4.039062 -1.925781 4.109375 -1.6875 4.109375 -1.40625 C 4.109375 -0.96875 3.929688 -0.617188 3.578125 -0.359375 C 3.234375 -0.0976562 2.78125 0.03125 2.21875 0.03125 C 1.84375 0.03125 1.472656 -0.0390625 1.109375 -0.1875 C 0.753906 -0.332031 0.445312 -0.523438 0.1875 -0.765625 L 0.546875 -1.484375 C 0.796875 -1.253906 1.070312 -1.078125 1.375 -0.953125 C 1.675781 -0.828125 1.960938 -0.765625 2.234375 -0.765625 C 2.523438 -0.765625 2.753906 -0.816406 2.921875 -0.921875 C 3.085938 -1.023438 3.171875 -1.175781 3.171875 -1.375 C 3.171875 -1.539062 3.101562 -1.679688 2.96875 -1.796875 C 2.832031 -1.910156 2.664062 -1.992188 2.46875 -2.046875 C 2.269531 -2.109375 2.050781 -2.175781 1.8125 -2.25 C 1.582031 -2.332031 1.367188 -2.414062 1.171875 -2.5 C 0.972656 -2.59375 0.804688 -2.734375 0.671875 -2.921875 C 0.546875 -3.117188 0.484375 -3.359375 0.484375 -3.640625 C 0.484375 -4.054688 0.644531 -4.390625 0.96875 -4.640625 C 1.300781 -4.890625 1.742188 -5.015625 2.296875 -5.015625 Z M 2.296875 -5.015625 "/></g></g></g><g fill="#000000" fill-opacity="1"><g transform="translate(253.752429, 254.103683)"><g><path d="M 1 -4.28125 C 1.507812 -4.769531 2.132812 -5.015625 2.875 -5.015625 C 3.625 -5.015625 4.253906 -4.769531 4.765625 -4.28125 C 5.273438 -3.800781 5.53125 -3.203125 5.53125 -2.484375 C 5.53125 -1.773438 5.273438 -1.175781 4.765625 -0.6875 C 4.253906 -0.207031 3.625 0.03125 2.875 0.03125 C 2.132812 0.03125 1.507812 -0.207031 1 -0.6875 C 0.5 -1.175781 0.25 -1.773438 0.25 -2.484375 C 0.25 -3.203125 0.5 -3.800781 1 -4.28125 Z M 2.890625 -4.25 C 2.398438 -4.25 1.976562 -4.078125 1.625 -3.734375 C 1.269531 -3.398438 1.09375 -2.984375 1.09375 -2.484375 C 1.09375 -1.992188 1.269531 -1.578125 1.625 -1.234375 C 1.976562 -0.890625 2.398438 -0.71875 2.890625 -0.71875 C 3.378906 -0.71875 3.796875 -0.890625 4.140625 -1.234375 C 4.492188 -1.578125 4.671875 -1.992188 4.671875 -2.484375 C 4.671875 -2.984375 4.492188 -3.398438 4.140625 -3.734375 C 3.796875 -4.078125 3.378906 -4.25 2.890625 -4.25 Z M 2.890625 -4.25 "/></g></g></g><g fill="#000000" fill-opacity="1"><g transform="translate(260.962832, 254.103683)"><g><path d="M 1.5 -0.765625 L 3.65625 -0.765625 L 3.65625 0 L 0.65625 0 L 0.65625 -4.984375 L 1.5 -4.984375 Z M 1.5 -0.765625 "/></g></g></g><g fill="#000000" fill-opacity="1"><g transform="translate(266.204818, 254.103683)"><g><path d="M 4.890625 -4.984375 L 4.890625 -2.0625 C 4.890625 -1.414062 4.695312 -0.90625 4.3125 -0.53125 C 3.925781 -0.15625 3.394531 0.03125 2.71875 0.03125 C 2.050781 0.03125 1.523438 -0.15625 1.140625 -0.53125 C 0.753906 -0.90625 0.5625 -1.414062 0.5625 -2.0625 L 0.5625 -4.984375 L 1.390625 -4.984375 L 1.390625 -2.0625 C 1.390625 -1.644531 1.507812 -1.316406 1.75 -1.078125 C 1.988281 -0.835938 2.316406 -0.71875 2.734375 -0.71875 C 3.140625 -0.71875 3.457031 -0.835938 3.6875 -1.078125 C 3.925781 -1.316406 4.046875 -1.644531 4.046875 -2.0625 L 4.046875 -4.984375 Z M 4.890625 -4.984375 "/></g></g></g><g fill="#000000" fill-opacity="1"><g transform="translate(273.087151, 254.103683)"><g><path d="M 4.0625 -4.234375 L 2.484375 -4.234375 L 2.484375 0 L 1.640625 0 L 1.640625 -4.234375 L 0.0625 -4.234375 L 0.0625 -4.984375 L 4.0625 -4.984375 Z M 4.0625 -4.234375 "/></g></g></g><g fill="#000000" fill-opacity="1"><g transform="translate(278.650079, 254.103683)"><g><path d="M 1.5 0 L 0.65625 0 L 0.65625 -4.984375 L 1.5 -4.984375 Z M 1.5 0 "/></g></g></g><g fill="#000000" fill-opacity="1"><g transform="translate(282.237442, 254.103683)"><g><path d="M 1 -4.28125 C 1.507812 -4.769531 2.132812 -5.015625 2.875 -5.015625 C 3.625 -5.015625 4.253906 -4.769531 4.765625 -4.28125 C 5.273438 -3.800781 5.53125 -3.203125 5.53125 -2.484375 C 5.53125 -1.773438 5.273438 -1.175781 4.765625 -0.6875 C 4.253906 -0.207031 3.625 0.03125 2.875 0.03125 C 2.132812 0.03125 1.507812 -0.207031 1 -0.6875 C 0.5 -1.175781 0.25 -1.773438 0.25 -2.484375 C 0.25 -3.203125 0.5 -3.800781 1 -4.28125 Z M 2.890625 -4.25 C 2.398438 -4.25 1.976562 -4.078125 1.625 -3.734375 C 1.269531 -3.398438 1.09375 -2.984375 1.09375 -2.484375 C 1.09375 -1.992188 1.269531 -1.578125 1.625 -1.234375 C 1.976562 -0.890625 2.398438 -0.71875 2.890625 -0.71875 C 3.378906 -0.71875 3.796875 -0.890625 4.140625 -1.234375 C 4.492188 -1.578125 4.671875 -1.992188 4.671875 -2.484375 C 4.671875 -2.984375 4.492188 -3.398438 4.140625 -3.734375 C 3.796875 -4.078125 3.378906 -4.25 2.890625 -4.25 Z M 2.890625 -4.25 "/></g></g></g><g fill="#000000" fill-opacity="1"><g transform="translate(289.447845, 254.103683)"><g><path d="M 4.984375 0 L 4.15625 0 L 1.5 -3.578125 L 1.5 0 L 0.65625 0 L 0.65625 -4.984375 L 1.484375 -4.984375 L 4.15625 -1.40625 L 4.15625 -4.984375 L 4.984375 -4.984375 Z M 4.984375 0 "/></g></g></g></svg>